<svg xmlns="http://www.w3.org/2000/svg" viewBox="0 0 200 200" width="200" height="200">
  <rect width="200" height="200" rx="24" fill="#121212"/>
  <rect x="20" y="20" width="160" height="160" rx="16" fill="#171717"/>
  <!-- Factory silhouette -->
  <rect x="40" y="110" width="120" height="60" rx="4" fill="#4ade80" opacity="0.15"/>
  <rect x="40" y="110" width="120" height="60" rx="4" stroke="#4ade80" stroke-width="2" fill="none"/>
  <!-- Chimneys -->
  <rect x="55" y="80" width="20" height="35" rx="3" fill="#4ade80" opacity="0.8"/>
  <rect x="90" y="65" width="20" height="50" rx="3" fill="#4ade80"/>
  <rect x="125" y="75" width="20" height="40" rx="3" fill="#4ade80" opacity="0.8"/>
  <!-- Smoke dots -->
  <circle cx="65" cy="73" r="4" fill="#4ade80" opacity="0.4"/>
  <circle cx="65" cy="62" r="3" fill="#4ade80" opacity="0.25"/>
  <circle cx="100" cy="58" r="4" fill="#4ade80" opacity="0.4"/>
  <circle cx="100" cy="47" r="3" fill="#4ade80" opacity="0.25"/>
  <circle cx="135" cy="68" r="4" fill="#4ade80" opacity="0.4"/>
  <circle cx="135" cy="57" r="3" fill="#4ade80" opacity="0.25"/>
  <!-- Windows -->
  <rect x="55" y="122" width="18" height="14" rx="2" fill="#4ade80" opacity="0.5"/>
  <rect x="91" y="122" width="18" height="14" rx="2" fill="#4ade80" opacity="0.5"/>
  <rect x="127" y="122" width="18" height="14" rx="2" fill="#4ade80" opacity="0.5"/>
</svg>
